<?xml version="1.0" encoding="utf-8"?>
<!-- Generator: Adobe Illustrator 28.1.0, SVG Export Plug-In . SVG Version: 6.00 Build 0)  -->
<svg version="1.1" id="Layer_1" xmlns="http://www.w3.org/2000/svg" xmlns:xlink="http://www.w3.org/1999/xlink" x="0px" y="0px"
	 viewBox="0 0 121.7 40.7" style="enable-background:new 0 0 121.7 40.7;" xml:space="preserve">
<style type="text/css">
	.st0{fill:#FFFFFF;}
</style>
<path class="st0" d="M23.6,33.3c-0.7,0.8-1.4,1.5-2.2,2.2c-3,2.6-6,4-6.8,4.4c-0.9-0.4-3.8-1.7-6.8-4.4c-0.8-0.7-1.6-1.5-2.2-2.3
	l9-6.9L0.7,15.8h27.7L14.6,26.4L23.6,33.3z M1.9,6.3C1.9,6.2,1.9,6.2,1.9,6.3c1.4,0.1,1.8,0.9,1.8,0.9C3.8,7.4,3.9,7.7,3.8,8
	C4,7.8,4.2,7.7,4.4,7.7c0.8-0.1,1.5,0.5,1.9,1.1c0,0,0,0.1,0,0.1c-0.5,0.8-1.2,1-1.5,1.1C4.9,10,5,10.1,5.1,10.2
	c0.2,0.4,0.1,0.8-0.2,1.1c0,0,0,0,0,0c0,0-0.1,0-0.1,0L1.9,6.3C1.9,6.3,1.9,6.3,1.9,6.3 M6.9,6.7L8,6.4L7.7,5.3
	c0-0.2,0.1-0.3,0.2-0.4l0.7-0.2c0.2,0,0.3,0,0.3,0.2l0.3,1.1l1.1-0.3c0.2,0,0.3,0,0.4,0.2L11,6.7c0,0.2,0,0.3-0.2,0.3L9.6,7.3
	L10,8.9c0,0.2,0,0.3-0.2,0.3L9.1,9.4c-0.2,0-0.3,0-0.4-0.2L8.4,7.7L7.2,8c-0.2,0-0.3,0-0.3-0.2L6.7,7.1C6.7,6.9,6.8,6.8,6.9,6.7
	 M13.1,5.3c0.2-0.1,0.4-0.1,0.7,0l0,0c-0.2-0.2-0.3-0.5-0.3-0.8c0,0-0.1-0.9,1.1-1.7c0,0,0.1,0,0.1,0c1.2,0.7,1.1,1.7,1.1,1.7
	c0,0.3-0.1,0.6-0.3,0.8c0.2-0.1,0.5,0,0.7,0c0.7,0.3,1.1,1.1,1.1,1.9c0,0,0,0.1,0,0.1c-0.9,0.5-1.5,0.3-1.8,0.2
	c0.1,0.1,0.1,0.2,0.1,0.4c0,0.4-0.4,0.8-0.8,0.8c-0.4,0-0.8-0.4-0.8-0.8c0-0.1,0-0.3,0.1-0.4c-0.3,0.1-0.9,0.3-1.8-0.2
	c0,0,0,0,0-0.1C12,6.5,12.3,5.6,13.1,5.3 M18.2,6.7L18.3,6c0-0.2,0.2-0.2,0.3-0.2l1.1,0.3l0.3-1.1c0-0.2,0.2-0.2,0.4-0.2l0.7,0.2
	c0.2,0,0.2,0.2,0.2,0.4l-0.3,1.1l1.1,0.3c0.2,0,0.2,0.2,0.2,0.3l-0.2,0.7C22.2,7.9,22,8,21.9,8l-1.1-0.3l-0.4,1.5
	c0,0.2-0.2,0.2-0.4,0.2l-0.7-0.2c-0.2,0-0.2-0.2-0.2-0.3l0.4-1.5L18.4,7C18.2,7,18.1,6.8,18.2,6.7 M23.9,12.1l-1,1.8
	c-2.5-1.5-5.4-2.2-8.3-2.2s-5.8,0.8-8.3,2.2l-1-1.8c2.8-1.6,6.1-2.5,9.3-2.5S21.1,10.4,23.9,12.1 M22.8,8.7c0.4-0.6,1.1-1.2,1.9-1.1
	c0.2,0,0.4,0.1,0.6,0.3c-0.1-0.3,0-0.6,0.1-0.8c0,0,0.4-0.8,1.7-0.9c0,0,0,0,0,0c0,0,0,0,0,0.1l-2.8,4.9c0,0,0,0-0.1,0c0,0,0,0,0,0
	c-0.3-0.2-0.5-0.7-0.2-1.1c0.1-0.1,0.2-0.2,0.3-0.3C24,9.9,23.4,9.7,22.8,8.7C22.8,8.8,22.8,8.8,22.8,8.7 M0,1.2c0,0,0,4.6,0,19.2
	c0,14.9,14.6,20.4,14.6,20.4s14.6-5.5,14.6-20.4c0-14.6,0-19.2,0-19.2H0z"/>
<path class="st0" d="M117.5,23c1.2,0,2,0.8,2.1,2h-4.4C115.5,23.8,116.3,23,117.5,23 M117.6,21.4c-2.6,0-4.4,1.9-4.4,4.7
	c0,2.9,1.9,4.7,4.4,4.7c1.8,0,3.3-1.1,3.7-2.4l-1.6-0.9c-0.4,1.1-1.2,1.5-2.2,1.5c-1.3,0-2.3-1-2.4-2.7h6.4v-0.5
	C121.6,23.3,120.1,21.4,117.6,21.4 M107.9,23c1.2,0,2,0.8,2.1,2h-4.4C105.9,23.8,106.8,23,107.9,23 M108,21.4
	c-2.6,0-4.4,1.9-4.4,4.7c0,2.9,1.9,4.7,4.4,4.7c1.8,0,3.3-1.1,3.7-2.4l-1.6-0.9c-0.4,1.1-1.2,1.5-2.2,1.5c-1.3,0-2.3-1-2.4-2.7h6.4
	v-0.5C112,23.3,110.5,21.4,108,21.4 M97.6,29.1c-1.5,0-2.4-1.1-2.4-3c0-1.9,0.9-3,2.4-3c1.4,0,2.4,0.8,2.5,2.5v0.9
	C100,28.2,99,29.1,97.6,29.1 M100.1,18.2v4.5H100c-0.5-0.8-1.4-1.3-2.7-1.3c-2.2,0-4,1.8-4,4.7c0,2.9,1.8,4.7,4,4.7
	c1.3,0,2.2-0.6,2.7-1.3h0.1v1.1h1.9V17.9L100.1,18.2z M88.5,21.4c-1.2,0-2.2,0.6-2.7,1.4h-0.2l-0.1-1.1h-1.8v9h1.9V26
	c0-1,0.2-1.6,0.6-2.1c0.4-0.5,1.1-0.8,1.8-0.8c1.1,0,1.7,0.6,1.7,2.2v5.3h1.9v-6C91.7,22.2,90.2,21.4,88.5,21.4 M79.7,21.6v4.7
	c0,1-0.2,1.6-0.6,2.1c-0.4,0.5-1.1,0.8-1.8,0.8c-1.1,0-1.7-0.6-1.7-2.2v-5.3h-1.9v6c0,2.5,1.5,3.3,3.2,3.3c1.2,0,2.2-0.6,2.7-1.4
	h0.2l0.1,1.1h1.8v-9H79.7z M64.1,20.6h1.6c3.2,0,4.3,1.4,4.3,4.1c0,2.7-1.1,4.2-4.3,4.2h-1.6V20.6z M65.7,18.8H62v11.8h3.7
	c4.4,0,6.4-2.3,6.4-5.9C72.1,21.1,70.1,18.8,65.7,18.8 M56.7,20.2c0.4,0,0.8,0.1,1.1,0.2v-1.7c-0.3-0.1-0.7-0.1-1.3-0.1
	c-1.5,0-3.2,0.7-3.2,3.2v0.3H52v1.5h1.4v7h1.8v-7h2.3v-1.5h-2.3V22C55.2,20.8,55.7,20.2,56.7,20.2 M49.3,26.3c0,1.8-0.9,2.8-2.3,2.8
	c-1.4,0-2.3-1-2.3-2.8c0-1.8,0.9-2.8,2.3-2.8C48.4,23.5,49.3,24.5,49.3,26.3 M51.1,26.3c0-2.7-1.7-4.5-4.2-4.5
	c-2.5,0-4.2,1.7-4.2,4.5c0,2.7,1.7,4.5,4.2,4.5C49.4,30.8,51.1,29.1,51.1,26.3"/>
<path class="st0" d="M121.7,4h-2l-2.3,6.9L115,4h-2.2l3.4,9l-1.2,3.3h2l4-10.6l0,0L121.7,4z M109.8,9.5V5.5h2.2V4h-2.2V1.5l-1.9,0.2
	V4h-1.2v1.6h1.2v4.1c0,2.7,1.7,3.4,3.3,3.4c0.6,0,0.9-0.1,1.3-0.1v-1.8c-0.3,0.1-0.7,0.2-1.1,0.2C110.3,11.3,109.8,10.7,109.8,9.5
	 M105.1,4h-1.9v9h1.9V4z M105.4,1.3c0-0.7-0.6-1.3-1.2-1.3c-0.7,0-1.3,0.5-1.3,1.3c0,0.7,0.6,1.2,1.3,1.2
	C104.8,2.5,105.4,2,105.4,1.3 M95,10.1l-1,1.3c0.6,0.9,1.8,1.7,3.6,1.7c2.1,0,3.5-1.1,3.5-2.9c0-1.7-1.4-2.3-3-2.8
	c-1.1-0.3-2-0.5-2-1.3c0-0.5,0.5-0.9,1.4-0.9c1,0,2,0.6,2.4,1.1l1-1.4c-0.8-0.8-1.9-1.4-3.4-1.4c-2,0-3.4,1-3.4,2.7
	c0,1.7,1.4,2.3,3.1,2.8c1.2,0.3,1.9,0.6,1.9,1.4c0,0.7-0.6,1.1-1.6,1.1C96.5,11.5,95.5,10.8,95,10.1 M92.8,3.7c-1,0-1.9,0.6-2.4,1.6
	h-0.1L90.2,4h-1.8v9h2v-5c0-1.6,1-2.4,2.2-2.4c0.4,0,0.6,0,0.7,0.1l0.1-1.9C93.2,3.7,93,3.7,92.8,3.7 M82.4,5.3c1.2,0,2,0.8,2.1,2
	h-4.4C80.4,6.1,81.2,5.3,82.4,5.3 M82.5,3.7c-2.6,0-4.4,1.9-4.4,4.7c0,2.9,1.9,4.7,4.4,4.7c1.8,0,3.3-1.1,3.7-2.4l-1.6-0.8
	c-0.4,1.1-1.2,1.5-2.2,1.5c-1.3,0-2.3-1-2.4-2.7h6.4V8.2C86.5,5.7,85,3.7,82.5,3.7 M75.4,4l-2.3,6.9L70.8,4h-2.2l3.4,9h2.1l3.4-9
	H75.4z M67.1,4h-1.9v9h1.9V4z M67.3,1.3c0-0.7-0.6-1.3-1.2-1.3c-0.7,0-1.3,0.5-1.3,1.3c0,0.7,0.6,1.2,1.3,1.2
	C66.8,2.5,67.3,2,67.3,1.3 M59.6,3.7c-1.2,0-2.2,0.6-2.7,1.4h-0.2L56.7,4h-1.8v9h1.9V8.3c0-1,0.2-1.6,0.6-2.1
	c0.4-0.5,1.1-0.8,1.8-0.8c1.1,0,1.7,0.6,1.7,2.2v5.3h1.9V7C62.8,4.5,61.3,3.7,59.6,3.7 M45.1,8.1v-7H43v7c0,3.2,1.5,5.1,4.7,5.1
	c3.2,0,4.8-1.8,4.8-5.1v-7h-2.1v7c0,2.2-0.7,3.3-2.7,3.3C45.8,11.4,45.1,10.3,45.1,8.1"/>
</svg>
